<?xml version="1.0" encoding="utf-8"?>
<!-- Generator: Adobe Illustrator 19.0.0, SVG Export Plug-In . SVG Version: 6.00 Build 0)  -->
<svg version="1.1" id="Layer_1" xmlns="http://www.w3.org/2000/svg" xmlns:xlink="http://www.w3.org/1999/xlink" x="0px" y="0px"
	 viewBox="0 0 960 560" style="enable-background:new 0 0 960 560;" xml:space="preserve">
<style type="text/css">
	.st0{fill:#007196;}
	.st1{fill:#011EA4;}
	.st2{fill:#004962;}
	.st3{fill:#ACB4D9;}
	.st4{fill:none;stroke:#000000;stroke-miterlimit:10;}
	.st5{fill:#ACB4D9;stroke:#000000;stroke-miterlimit:10;}
	.st6{fill:#011EA4;stroke:#000000;stroke-miterlimit:10;}
</style>
<g id="XMLID_10_">
	<g id="XMLID_13_">
		<polygon id="XMLID_38_" class="st0" points="960,334 391.5,485.9 391.5,485.9 271.9,327.8 509.9,329.9 959.5,334 		"/>
		<polygon id="XMLID_35_" class="st0" points="960,560.5 233.3,560.5 -0.5,434.5 391.5,485.9 391.5,485.9 		"/>
		<polygon id="XMLID_30_" class="st1" points="959.5,0.6 959.5,333.3 957.1,329.9 957.1,329.9 835,157.9 		"/>
		<polygon id="XMLID_29_" class="st2" points="959.5,0 835,157.9 723.2,0.5 		"/>
		<polygon id="XMLID_28_" class="st1" points="959.4,333.9 959.5,334 509.9,329.9 357.6,259 166.3,169.9 84.1,131.7 81.3,128.8 		
			"/>
		<polygon id="XMLID_27_" class="st0" points="959.4,333.9 81.3,128.8 81.2,128.7 723.2,0.5 835,157.9 957.1,329.9 957.1,329.9 		
			"/>
		<polygon id="XMLID_26_" class="st2" points="509.9,329.9 271.9,327.8 84.1,131.7 166.3,169.9 357.6,259 		"/>
		<polygon id="XMLID_25_" class="st1" points="271.9,327.8 391.5,485.9 -0.5,434.5 -0.5,434 		"/>
		<polygon id="XMLID_23_" class="st0" points="84.1,131.7 271.9,327.8 -0.5,434 -0.5,43.8 81,128.7 81.3,128.8 		"/>
		<polygon id="XMLID_21_" class="st3" points="195.1,0.5 81.1,128.6 195,0.5 		"/>
		<polygon id="XMLID_19_" class="st2" points="195,0.5 81.1,128.6 -0.5,43.4 0,0.5 		"/>
		<polygon id="XMLID_16_" class="st3" points="81.1,128.6 81.2,128.7 81,128.7 		"/>
	</g>
	<g id="XMLID_14_">
		<polyline id="XMLID_42_" class="st4" points="271.9,327.8 -0.5,434 -0.5,43.8 		"/>
		<polyline id="XMLID_41_" class="st4" points="-0.5,43.4 81.1,128.6 81.2,128.7 81.3,128.8 84.1,131.7 		"/>
		<polyline id="XMLID_40_" class="st4" points="391.5,485.9 960,560.5 233.3,560.5 -0.5,434.5 391.5,485.9 		"/>
		<polyline id="XMLID_39_" class="st4" points="271.9,327.8 391.5,485.9 391.5,485.9 960,334 959.5,334 509.9,329.9 		"/>
		<polygon id="XMLID_34_" class="st4" points="84.1,131.7 166.3,169.9 357.6,259 509.9,329.9 271.9,327.8 		"/>
		<polyline id="XMLID_33_" class="st4" points="81,128.7 -0.5,43.8 -0.5,43.4 0,0.5 195,0.5 		"/>
		<line id="XMLID_31_" class="st4" x1="195.1" y1="0.5" x2="81.1" y2="128.6"/>
		<polyline id="XMLID_32_" class="st4" points="723.2,0.5 81.2,128.7 81,128.7 81.3,128.8 959.4,333.9 959.5,333.9 960,334 
			959.5,333.3 957.1,329.9 		"/>
		<polyline id="XMLID_22_" class="st4" points="195,0.5 195.1,0.5 723.2,0.5 		"/>
		<line id="XMLID_18_" class="st4" x1="81" y1="128.7" x2="81.1" y2="128.6"/>
		<polygon id="XMLID_17_" class="st4" points="959.5,0.6 960,0 959.5,0 723.2,0.5 835,157.9 		"/>
		<polygon id="XMLID_8_" class="st4" points="959.5,334 959.5,333.9 959.5,333.3 959.5,0.6 959.5,0 835,157.9 957.1,329.9 
			957.1,329.9 959.4,333.9 		"/>
	</g>
</g>
<polygon id="XMLID_36_" class="st5" points="959.5,334 960,560.5 391.5,485.9 "/>
<polygon id="XMLID_37_" class="st5" points="-0.5,435 -0.5,560 233.3,560.5 "/>
<polygon id="XMLID_20_" class="st6" points="723.2,0.5 81,128.7 192.5,0.5 "/>
<path id="XMLID_15_" class="st6" d="M348.2-26.9"/>
</svg>
